<svg width="24" height="27" viewBox="0 0 24 27" version="1.1" xmlns="http://www.w3.org/2000/svg" xmlns:xlink="http://www.w3.org/1999/xlink">
<title>glogo</title>
<desc>Created using Figma</desc>
<g id="Canvas" transform="translate(33 138)">
<g id="glogo">
<g id="path">
<use xlink:href="#path0_stroke" transform="matrix(1 0 0 -1 -32 -118.807)" fill="#FBBC05"/>
</g>
<g id="path">
<use xlink:href="#path1_stroke" transform="matrix(1 0 0 -1 -32 -130.935)" fill="#EA4335"/>
</g>
<g id="path">
<use xlink:href="#path2_stroke" transform="matrix(1 0 0 -1 -26.5219 -119)" fill="#34A853"/>
</g>
<g id="path">
<use xlink:href="#path3_stroke" transform="matrix(1 0 0 -1 -32 -112.742)" fill="#4285F4"/>
</g>
</g>
</g>
<defs>
<path id="path0_stroke" d="M 0 6.06402L -0.363189 5.40782C -0.601872 5.53993 -0.75 5.79122 -0.75 6.06402L 0 6.06402ZM 10.9562 0L 11.3194 -0.65621C 11.0934 -0.781268 10.819 -0.781263 10.5931 -0.656196L 10.9562 0ZM 16.0712 3.68796C 16.4336 3.88853 16.89 3.75733 17.0906 3.39491C 17.2911 3.0325 17.1599 2.57611 16.7975 2.37554L 16.0712 3.68796ZM -0.75 12.1286C -0.75 12.5428 -0.414214 12.8786 0 12.8786C 0.414214 12.8786 0.75 12.5428 0.75 12.1286L -0.75 12.1286ZM 0.363189 6.72022L 11.3194 0.656196L 10.5931 -0.656196L -0.363189 5.40782L 0.363189 6.72022ZM 10.5931 0.65621L 16.0712 3.68796L 16.7975 2.37554L 11.3194 -0.65621L 10.5931 0.65621ZM -0.75 6.06402L -0.75 12.1286L 0.75 12.1286L 0.75 6.06402L -0.75 6.06402Z"/>
<path id="path1_stroke" d="M 22.2757 0.656183C 22.6381 0.455586 22.7693 -0.000813086 22.5687 -0.363213C 22.3681 -0.725613 21.9117 -0.85678 21.5493 -0.656183L 22.2757 0.656183ZM 10.9562 6.06454L 10.593 6.72073C 10.819 6.84582 11.0935 6.84582 11.3195 6.72073L 10.9562 6.06454ZM 0.363213 -0.656183C 0.000813022 -0.85678 -0.455586 -0.725613 -0.656183 -0.363213C -0.85678 -0.000813022 -0.725613 0.455586 -0.363213 0.656183L 0.363213 -0.656183ZM 21.5493 -0.656183L 10.593 5.40836L 11.3195 6.72073L 22.2757 0.656183L 21.5493 -0.656183ZM 11.3195 5.40836L 0.363213 -0.656183L -0.363213 0.656183L 10.593 6.72073L 11.3195 5.40836Z"/>
<path id="path2_stroke" d="M 0 8.90318L -0.354101 8.24204C -0.596214 8.37171 -0.748082 8.62335 -0.749982 8.89799C -0.751882 9.17264 -0.603509 9.42636 -0.363213 9.55937L 0 8.90318ZM 5.47812 11.9355L 5.11491 12.5916C 5.3409 12.7167 5.61535 12.7167 5.84134 12.5916L 5.47812 11.9355ZM 16.4344 5.87091L 16.7976 6.52709C 17.0363 6.39498 17.1844 6.1437 17.1844 5.87091L 16.4344 5.87091ZM 11.376 3.66114C 11.7411 3.46558 11.8786 3.01104 11.683 2.6459C 11.4875 2.28076 11.0329 2.14329 10.6678 2.33886L 11.376 3.66114ZM 17.1844 0C 17.1844 -0.414214 16.8486 -0.75 16.4344 -0.75C 16.0202 -0.75 15.6844 -0.414214 15.6844 0L 17.1844 0ZM -0.363213 9.55937L 5.11491 12.5916L 5.84134 11.2793L 0.363213 8.247L -0.363213 9.55937ZM 5.84134 12.5916L 16.7976 6.52709L 16.0712 5.21473L 5.11491 11.2793L 5.84134 12.5916ZM 0.354101 9.56433L 11.376 3.66114L 10.6678 2.33886L -0.354101 8.24204L 0.354101 9.56433ZM 17.1844 5.87091L 17.1844 0L 15.6844 0L 15.6844 5.87091L 17.1844 5.87091Z"/>
<path id="path3_stroke" d="M 21.5493 6.72073C 21.9117 6.92132 22.3681 6.79016 22.5687 6.42776C 22.7693 6.06536 22.6381 5.60896 22.2757 5.40836L 21.5493 6.72073ZM 10.9562 0L 11.3195 -0.656183C 11.0935 -0.781272 10.819 -0.781272 10.593 -0.656183L 10.9562 0ZM -0.363213 5.40836C -0.725613 5.60896 -0.85678 6.06536 -0.656183 6.42776C -0.455586 6.79016 0.000813022 6.92132 0.363213 6.72073L -0.363213 5.40836ZM 22.2757 5.40836L 11.3195 -0.656183L 10.593 0.656183L 21.5493 6.72073L 22.2757 5.40836ZM 10.593 -0.656183L -0.363213 5.40836L 0.363213 6.72073L 11.3195 0.656183L 10.593 -0.656183Z"/>
</defs>
</svg>
